
                <svg xmlns="http://www.w3.org/2000/svg" xmlns:xlink="http://www.w3.org/1999/xlink" width="622" height="1468" shape-rendering="optimizeSpeed">
                
                <g>
                   <rect x="50" y="65" width="443.4" height="30" rx="3" ry="3" style="fill:#90caf9; stroke:#444; stroke-width:1"></rect>
                   <title>const streamElement = document.getElementById('stream')</title>
            <text x="65" y="85" font-family="monospace" font-size="13" fill="#222">
                <tspan x="65" y="85">const streamElement = document.getElementById('str...</tspan>
            </text>
                   
                   
                </g>
                <g>
                   <rect x="50" y="113.5" width="420" height="30" rx="3" ry="3" style="fill:#90caf9; stroke:#444; stroke-width:1"></rect>
                   <title>const message = document.getElementById('message')</title>
            <text x="65" y="133.5" font-family="monospace" font-size="13" fill="#222">
                <tspan x="65" y="133.5">const message = document.getElementById('message')</tspan>
            </text>
                   
                   
                </g>
                <g>
                   <rect x="50" y="162" width="443.4" height="30" rx="3" ry="3" style="fill:#90caf9; stroke:#444; stroke-width:1"></rect>
                   <title>const signallerButton = document.getElementById('signallerBtn')</title>
            <text x="65" y="182" font-family="monospace" font-size="13" fill="#222">
                <tspan x="65" y="182">const signallerButton = document.getElementById('s...</tspan>
            </text>
                   
                   
                </g>
                <g>
                   <rect x="50" y="210.5" width="388.8" height="30" rx="3" ry="3" style="fill:#90caf9; stroke:#444; stroke-width:1"></rect>
                   <title>const params = getParams(window.location.href)</title>
            <text x="65" y="230.5" font-family="monospace" font-size="13" fill="#222">
                <tspan x="65" y="230.5">const params = getParams(window.location.href)</tspan>
            </text>
                   
                   
                </g>
                <g>
                   <rect x="50" y="259" width="420" height="30" rx="3" ry="3" style="fill:#90caf9; stroke:#444; stroke-width:1"></rect>
                   <title>const vclass = VirtualClass('client', {*}, params)</title>
            <text x="65" y="279" font-family="monospace" font-size="13" fill="#222">
                <tspan x="65" y="279">const vclass = VirtualClass('client', {*}, params)</tspan>
            </text>
                   
                   
                </g>
                <g>
                   <rect x="87" y="307.5" width="53.4" height="30" rx="3" ry="3" style="fill:#90caf9; stroke:#444; stroke-width:1"></rect>
                   <title>{*}</title>
            <text x="102" y="327.5" font-family="monospace" font-size="13" fill="#222">
                <tspan x="102" y="327.5">{*}</tspan>
            </text>
                   
                   
                </g>
                <g>
                   <rect x="124" y="356" width="232.79999999999998" height="30" rx="2" ry="2" style="fill:#90caf9; stroke:#444; stroke-width:1"></rect>
                   <title>host: 'peerjs.walsted.dev'</title>
            <text x="139" y="376" font-family="monospace" font-size="13" fill="#222">
                <tspan x="139" y="376">host: 'peerjs.walsted.dev'</tspan>
            </text>
                   
                   
                </g>
                <g>
                   <rect x="124" y="404.5" width="100.2" height="30" rx="2" ry="2" style="fill:#90caf9; stroke:#444; stroke-width:1"></rect>
                   <title>port: 443</title>
            <text x="139" y="424.5" font-family="monospace" font-size="13" fill="#222">
                <tspan x="139" y="424.5">port: 443</tspan>
            </text>
                   
                   
                </g>
                <g>
                   <rect x="124" y="453" width="123.6" height="30" rx="2" ry="2" style="fill:#90caf9; stroke:#444; stroke-width:1"></rect>
                   <title>path: '/p2p'</title>
            <text x="139" y="473" font-family="monospace" font-size="13" fill="#222">
                <tspan x="139" y="473">path: '/p2p'</tspan>
            </text>
                   
                   
                </g>
                <g>
                   <rect x="124" y="501.5" width="123.6" height="30" rx="2" ry="2" style="fill:#90caf9; stroke:#444; stroke-width:1"></rect>
                   <title>secure: true</title>
            <text x="139" y="521.5" font-family="monospace" font-size="13" fill="#222">
                <tspan x="139" y="521.5">secure: true</tspan>
            </text>
                   
                   
                </g>
                <g>
                   <rect x="124" y="550" width="92.4" height="30" rx="2" ry="2" style="fill:#90caf9; stroke:#444; stroke-width:1"></rect>
                   <title>debug: 3</title>
            <text x="139" y="570" font-family="monospace" font-size="13" fill="#222">
                <tspan x="139" y="570">debug: 3</tspan>
            </text>
                   
                   
                </g>
                <g>
                   <rect x="124" y="598.5" width="115.8" height="30" rx="2" ry="2" style="fill:#90caf9; stroke:#444; stroke-width:1"></rect>
                   <title>config: {*}</title>
            <text x="139" y="618.5" font-family="monospace" font-size="13" fill="#222">
                <tspan x="139" y="618.5">config: {*}</tspan>
            </text>
                   
                   
                </g>
                <g>
                   <rect x="161" y="647" width="435.59999999999997" height="30" rx="2" ry="2" style="fill:#90caf9; stroke:#444; stroke-width:1"></rect>
                   <title>'iceServers': [{
  url: 'stun:stun.l.google.com:19302'
}, {
  url: 'turn:numb.viagenie.ca',
  credential: 'muazkh',
  username: 'webrtc@live.com'
}]</title>
            <text x="176" y="667" font-family="monospace" font-size="13" fill="#222">
                <tspan x="176" y="667">'iceServers': [{
  url: 'stun:stun.l.google.com:19...</tspan>
            </text>
                   
                   
                </g>
                <g>
                   <rect x="198" y="695.5" width="53.4" height="30" rx="3" ry="3" style="fill:#90caf9; stroke:#444; stroke-width:1"></rect>
                   <title>{*}</title>
            <text x="213" y="715.5" font-family="monospace" font-size="13" fill="#222">
                <tspan x="213" y="715.5">{*}</tspan>
            </text>
                   
                   
                </g>
                <g>
                   <rect x="235" y="744" width="303" height="30" rx="2" ry="2" style="fill:#90caf9; stroke:#444; stroke-width:1"></rect>
                   <title>url: 'stun:stun.l.google.com:19302'</title>
            <text x="250" y="764" font-family="monospace" font-size="13" fill="#222">
                <tspan x="250" y="764">url: 'stun:stun.l.google.com:19302'</tspan>
            </text>
                   
                   
                </g>
                <g>
                   <rect x="198" y="792.5" width="53.4" height="30" rx="3" ry="3" style="fill:#90caf9; stroke:#444; stroke-width:1"></rect>
                   <title>{*}</title>
            <text x="213" y="812.5" font-family="monospace" font-size="13" fill="#222">
                <tspan x="213" y="812.5">{*}</tspan>
            </text>
                   
                   
                </g>
                <g>
                   <rect x="235" y="841" width="248.4" height="30" rx="2" ry="2" style="fill:#90caf9; stroke:#444; stroke-width:1"></rect>
                   <title>url: 'turn:numb.viagenie.ca'</title>
            <text x="250" y="861" font-family="monospace" font-size="13" fill="#222">
                <tspan x="250" y="861">url: 'turn:numb.viagenie.ca'</tspan>
            </text>
                   
                   
                </g>
                <g>
                   <rect x="235" y="889.5" width="186" height="30" rx="2" ry="2" style="fill:#90caf9; stroke:#444; stroke-width:1"></rect>
                   <title>credential: 'muazkh'</title>
            <text x="250" y="909.5" font-family="monospace" font-size="13" fill="#222">
                <tspan x="250" y="909.5">credential: 'muazkh'</tspan>
            </text>
                   
                   
                </g>
                <g>
                   <rect x="235" y="938" width="240.6" height="30" rx="2" ry="2" style="fill:#90caf9; stroke:#444; stroke-width:1"></rect>
                   <title>username: 'webrtc@live.com'</title>
            <text x="250" y="958" font-family="monospace" font-size="13" fill="#222">
                <tspan x="250" y="958">username: 'webrtc@live.com'</tspan>
            </text>
                   
                   
                </g>
                <g>
                   <rect x="50" y="986.5" width="443.4" height="30" rx="3" ry="3" style="fill:#90caf9; stroke:#444; stroke-width:1"></rect>
                   <title>document.getElementById("class-name").innerHTML = vclass.roomName</title>
            <text x="65" y="1006.5" font-family="monospace" font-size="13" fill="#222">
                <tspan x="65" y="1006.5">document.getElementById("class-name").innerHTML = ...</tspan>
            </text>
                   
                   
                </g>
                <g>
                   <rect x="87" y="1035" width="318.59999999999997" height="30" rx="2" ry="2" style="fill:#C5E1A5; stroke:#444; stroke-width:1"></rect>
                   <title>document.getElementById('class-name')</title>
            <text x="102" y="1055" font-family="monospace" font-size="13" fill="#222">
                <tspan x="102" y="1055">document.getElementById('class-name')</tspan>
            </text>
                   
                   
                </g>
                <g>
                   <rect x="50" y="1083.5" width="139.2" height="30" rx="2" ry="2" style="fill:#C5E1A5; stroke:#444; stroke-width:1"></rect>
                   <title>vclass.setup()</title>
            <text x="65" y="1103.5" font-family="monospace" font-size="13" fill="#222">
                <tspan x="65" y="1103.5">vclass.setup()</tspan>
            </text>
                   
                   
                </g>
            <g>
                <rect x="50" y="1147" width="151.39999999999998" height="30" style="fill:#a5d6a7; stroke:#444; stroke-width:1"></rect>
                    
                <line x1="60" y1="1147" x2="60" y2="1177" style="fill:#a5d6a7; stroke:#444; stroke-width:1"></line>
                <line x1="191.39999999999998" y1="1147" x2="191.39999999999998" y2="1177" style="fill:#a5d6a7; stroke:#444; stroke-width:1"></line>
             
                <title>setup = () =&gt;</title>
            <text x="75" y="1167" font-family="monospace" font-size="13" fill="#222">
                <tspan x="75" y="1167">setup = () =&gt;</tspan>
            </text>
                
            </g><g>
            <rect x="117" y="1210.5" width="231.60000000000002" height="30" rx="3" ry="3" style="fill:#ce93d8; stroke:#444; stroke-width:1"></rect>                
            <polygon points="87,1225.5 117,1195.5 147,1225.5 117,1255.5" style="fill:#ce93d8; stroke:#444; stroke-width:1"></polygon>
            <title>(vclass._open == true)</title>
            <text x="162" y="1230.5" font-family="monospace" font-size="13" fill="#222">
                <tspan x="162" y="1230.5">(vclass._open == true)</tspan>
            </text>
            
            <text x="109.2" y="1230.5" font-family="monospace" font-size="13" fill="#222">if</text> <text x="124.8" y="1257.45" font-family="monospace" font-size="13" fill="#222">+</text> 
        </g>
                <g>
                   <rect x="137" y="1265.5" width="162.6" height="30" rx="2" ry="2" style="fill:#C5E1A5; stroke:#444; stroke-width:1"></rect>
                   <title>vclass.joinHost()</title>
            <text x="152" y="1285.5" font-family="monospace" font-size="13" fill="#222">
                <tspan x="152" y="1285.5">vclass.joinHost()</tspan>
            </text>
                   
                   
                </g>
            <g>
                <rect x="137" y="1314" width="76.8" height="30" rx="3" ry="3" style="fill:#90caf9; stroke:#444; stroke-width:1"></rect>
                
                <line x1="213.8" y1="1324" x2="218.8" y2="1324" style="fill:#a5d6a7; stroke:#444; stroke-width:1"></line>
                
                <line x1="213.8" y1="1334" x2="218.8" y2="1334" style="fill:#a5d6a7; stroke:#444; stroke-width:1"></line>

                <path d="M218.8, 1318 L234.8, 1329 L218.8, 1340 Z" fill="#a5d6a7" stroke="#444" stroke-width="1"></path>
                             
                <title>return</title>
            <text x="152" y="1334" font-family="monospace" font-size="13" fill="#222">
                <tspan x="152" y="1334">return</tspan>
            </text>
                
            </g>
                <g>
                   <rect x="87" y="1364" width="193.79999999999998" height="30" rx="2" ry="2" style="fill:#C5E1A5; stroke:#444; stroke-width:1"></rect>
                   <title>setTimeout(setup, 50)</title>
            <text x="102" y="1384" font-family="monospace" font-size="13" fill="#222">
                <tspan x="102" y="1384">setTimeout(setup, 50)</tspan>
            </text>
                   
                   
                </g>
                <g>
                   <rect x="50" y="1412.5" width="435.59999999999997" height="30" rx="2" ry="2" style="fill:#C5E1A5; stroke:#444; stroke-width:1"></rect>
                   <title>(setup = () =&gt; {
  // Joins the selected host if the peer has been created
  if (vclass._open == true) {
    vclass.joinHost();
    return;
  }

  setTimeout(setup, 50);
})()</title>
            <text x="65" y="1432.5" font-family="monospace" font-size="13" fill="#222">
                <tspan x="65" y="1432.5">(setup = () =&gt; {
  // Joins the selected host if t...</tspan>
            </text>
                   
                   
                </g>
            <g>
               <rect x="25" y="13.75" width="216.6" height="24" style="fill:#fff59d; stroke:#444; stroke-width:1"></rect>
               <circle cx="25" cy="25" r="15" style="fill:#fff59d; stroke:#444; stroke-width:1"></circle>
               <title>Program: source module</title>
            <text x="55" y="30" font-family="monospace" font-size="13" fill="#222">
                <tspan x="55" y="30">Program: source module</tspan>
            </text>
            </g>
            <g>
               <path d="M25, 40 L25 76 Q25 80
                29 80
                L42 80 " style="fill:none; stroke:#444; stroke-width:1"></path>
               <path d="M42, 77 L50, 80 L42, 83 Z" fill="#333"></path>
            </g>
            <g>
               <path d="M25, 40 L25 124.5 Q25 128.5
                29 128.5
                L42 128.5 " style="fill:none; stroke:#444; stroke-width:1"></path>
               <path d="M42, 125.5 L50, 128.5 L42, 131.5 Z" fill="#333"></path>
            </g>
            <g>
               <path d="M25, 40 L25 173 Q25 177
                29 177
                L42 177 " style="fill:none; stroke:#444; stroke-width:1"></path>
               <path d="M42, 174 L50, 177 L42, 180 Z" fill="#333"></path>
            </g>
            <g>
               <path d="M25, 40 L25 221.5 Q25 225.5
                29 225.5
                L42 225.5 " style="fill:none; stroke:#444; stroke-width:1"></path>
               <path d="M42, 222.5 L50, 225.5 L42, 228.5 Z" fill="#333"></path>
            </g>
            <g>
               <path d="M25, 40 L25 270 Q25 274
                29 274
                L42 274 " style="fill:none; stroke:#444; stroke-width:1"></path>
               <path d="M42, 271 L50, 274 L42, 277 Z" fill="#333"></path>
            </g>
            <g>
               <path d="M68.5, 289 L68.5 318.5 Q68.5 322.5
                72.5 322.5
                L79 322.5 " style="fill:none; stroke:#444; stroke-width:1"></path>
               <path d="M79, 319.5 L87, 322.5 L79, 325.5 Z" fill="#333"></path>
            </g>
            <g>
               <path d="M105.5, 337.5 L105.5 367 Q105.5 371
                109.5 371
                L124 371 " style="fill:none; stroke:#444; stroke-width:1"></path>
               false
            </g>
            <g>
               <path d="M105.5, 337.5 L105.5 415.5 Q105.5 419.5
                109.5 419.5
                L124 419.5 " style="fill:none; stroke:#444; stroke-width:1"></path>
               false
            </g>
            <g>
               <path d="M105.5, 337.5 L105.5 464 Q105.5 468
                109.5 468
                L124 468 " style="fill:none; stroke:#444; stroke-width:1"></path>
               false
            </g>
            <g>
               <path d="M105.5, 337.5 L105.5 512.5 Q105.5 516.5
                109.5 516.5
                L124 516.5 " style="fill:none; stroke:#444; stroke-width:1"></path>
               false
            </g>
            <g>
               <path d="M105.5, 337.5 L105.5 561 Q105.5 565
                109.5 565
                L124 565 " style="fill:none; stroke:#444; stroke-width:1"></path>
               false
            </g>
            <g>
               <path d="M105.5, 337.5 L105.5 609.5 Q105.5 613.5
                109.5 613.5
                L124 613.5 " style="fill:none; stroke:#444; stroke-width:1"></path>
               false
            </g>
            <g>
               <path d="M142.5, 628.5 L142.5 658 Q142.5 662
                146.5 662
                L161 662 " style="fill:none; stroke:#444; stroke-width:1"></path>
               false
            </g>
            <g>
               <path d="M179.5, 677 L179.5 706.5 Q179.5 710.5
                183.5 710.5
                L190 710.5 " style="fill:none; stroke:#444; stroke-width:1"></path>
               <path d="M190, 707.5 L198, 710.5 L190, 713.5 Z" fill="#333"></path>
            </g>
            <g>
               <path d="M216.5, 725.5 L216.5 755 Q216.5 759
                220.5 759
                L235 759 " style="fill:none; stroke:#444; stroke-width:1"></path>
               false
            </g>
            <g>
               <path d="M179.5, 677 L179.5 803.5 Q179.5 807.5
                183.5 807.5
                L190 807.5 " style="fill:none; stroke:#444; stroke-width:1"></path>
               <path d="M190, 804.5 L198, 807.5 L190, 810.5 Z" fill="#333"></path>
            </g>
            <g>
               <path d="M216.5, 822.5 L216.5 852 Q216.5 856
                220.5 856
                L235 856 " style="fill:none; stroke:#444; stroke-width:1"></path>
               false
            </g>
            <g>
               <path d="M216.5, 822.5 L216.5 900.5 Q216.5 904.5
                220.5 904.5
                L235 904.5 " style="fill:none; stroke:#444; stroke-width:1"></path>
               false
            </g>
            <g>
               <path d="M216.5, 822.5 L216.5 949 Q216.5 953
                220.5 953
                L235 953 " style="fill:none; stroke:#444; stroke-width:1"></path>
               false
            </g>
            <g>
               <path d="M25, 40 L25 997.5 Q25 1001.5
                29 1001.5
                L42 1001.5 " style="fill:none; stroke:#444; stroke-width:1"></path>
               <path d="M42, 998.5 L50, 1001.5 L42, 1004.5 Z" fill="#333"></path>
            </g>
            <g>
               <path d="M68.5, 1016.5 L68.5 1046 Q68.5 1050
                72.5 1050
                L79 1050 " style="fill:none; stroke:#444; stroke-width:1"></path>
               <path d="M79, 1047 L87, 1050 L79, 1053 Z" fill="#333"></path>
            </g>
            <g>
               <path d="M25, 40 L25 1094.5 Q25 1098.5
                29 1098.5
                L42 1098.5 " style="fill:none; stroke:#444; stroke-width:1"></path>
               <path d="M42, 1095.5 L50, 1098.5 L42, 1101.5 Z" fill="#333"></path>
            </g>
            <g>
               <path d="M25, 40 L25 1158 Q25 1162
                29 1162
                L42 1162 " style="fill:none; stroke:#444; stroke-width:1"></path>
               <path d="M42, 1159 L50, 1162 L42, 1165 Z" fill="#333"></path>
            </g>
            <g>
               <path d="M68.5, 1177 L68.5 1221.5 Q68.5 1225.5
                72.5 1225.5
                L79 1225.5 " style="fill:none; stroke:#444; stroke-width:1"></path>
               <path d="M79, 1222.5 L87, 1225.5 L79, 1228.5 Z" fill="#333"></path>
            </g>
            <g>
               <path d="M117, 1255.5 L117 1276.5 Q117 1280.5
                121 1280.5
                L129 1280.5 " style="fill:none; stroke:#444; stroke-width:1"></path>
               <path d="M129, 1277.5 L137, 1280.5 L129, 1283.5 Z" fill="#333"></path>
            </g>
            <g>
               <path d="M117, 1255.5 L117 1325 Q117 1329
                121 1329
                L129 1329 " style="fill:none; stroke:#444; stroke-width:1"></path>
               <path d="M129, 1326 L137, 1329 L129, 1332 Z" fill="#333"></path>
            </g>
            <g>
               <path d="M68.5, 1177 L68.5 1375 Q68.5 1379
                72.5 1379
                L79 1379 " style="fill:none; stroke:#444; stroke-width:1"></path>
               <path d="M79, 1376 L87, 1379 L79, 1382 Z" fill="#333"></path>
            </g>
            <g>
               <path d="M25, 40 L25 1423.5 Q25 1427.5
                29 1427.5
                L42 1427.5 " style="fill:none; stroke:#444; stroke-width:1"></path>
               <path d="M42, 1424.5 L50, 1427.5 L42, 1430.5 Z" fill="#333"></path>
            </g>
            </svg>